<?xml version="1.0" encoding="UTF-8" standalone="no"?>
<!-- Generator: visioncortex VTracer 0.6.4 -->

<svg
   version="1.1"
   width="96"
   height="96"
   id="svg14"
   sodipodi:docname="logo.svg"
   inkscape:version="1.4.4 (dcaf3e7, 2026-05-05)"
   xmlns:inkscape="http://www.inkscape.org/namespaces/inkscape"
   xmlns:sodipodi="http://sodipodi.sourceforge.net/DTD/sodipodi-0.dtd"
   xmlns="http://www.w3.org/2000/svg"
   xmlns:svg="http://www.w3.org/2000/svg">
   <defs
      id="defs14" />
   <sodipodi:namedview
      id="namedview14"
      pagecolor="#ffffff"
      bordercolor="#000000"
      borderopacity="0.25"
      inkscape:showpageshadow="2"
      inkscape:pageopacity="0.0"
      inkscape:pagecheckerboard="0"
      inkscape:deskcolor="#d1d1d1"
      inkscape:zoom="4.343041"
      inkscape:cx="7.1378557"
      inkscape:cy="48.007836"
      inkscape:window-width="1275"
      inkscape:window-height="518"
      inkscape:window-x="0"
      inkscape:window-y="33"
      inkscape:window-maximized="0"
      inkscape:current-layer="svg14" />
   <path
      d="M0,0 L11,0 L11,10 L-7,28 L-8,52 L-32,53 L-50,71 L-60,71 L-60,60 L-38,38 L-22,38 L-22,22 Z "
      fill="#005AAC"
      transform="translate(60,0)"
      id="path1" />
   <path
      d="M0,0 L20,0 L20,20 L0,20 Z "
      fill="#0E9AD8"
      transform="translate(51,76)"
      id="path2" />
   <path
      d="M0,0 L20,0 L20,20 L0,20 Z "
      fill="#007DC7"
      transform="translate(25,76)"
      id="path3" />
   <path
      d="M0,0 L20,0 L20,20 L0,20 Z "
      fill="#7EAADB"
      transform="translate(76,51)"
      id="path4" />
   <path
      d="M0,0 L20,0 L20,20 L0,20 Z "
      fill="#7EAADB"
      transform="translate(76,25)"
      id="path5" />
   <path
      d="M0,0 L20,0 L20,20 L0,20 Z "
      fill="#7DAADB"
      transform="translate(76,76)"
      id="path6" />
   <path
      d="M0,0 L20,0 L20,20 L0,20 Z "
      fill="#005AAC"
      transform="translate(0,76)"
      id="path7" />
   <path
      d="M0,0 L20,0 L20,20 L0,20 Z "
      fill="#7EAADB"
      transform="translate(76,0)"
      id="path8" />
   <path
      d="M0,0 L14,0 L14,20 L-6,20 L-6,6 L0,20 Z "
      fill="#0E9AD9"
      transform="translate(57,51)"
      id="path9" />
   <path
      d="M0,0 L14,0 L14,14 L-6,14 L-6,6 Z "
      fill="#007EC8"
      transform="translate(31,57)"
      id="path10" />
   <path
      d="M0,0 L8,0 L8,20 L-6,20 L-6,6 Z "
      fill="#0E9AD9"
      transform="translate(63,25)"
      id="path11" />
</svg>